<svg xmlns="http://www.w3.org/2000/svg" aria-hidden="true" style="position:absolute;width:0;height:0;overflow:hidden">
  <defs>
    <symbol id="icon-logo-dark" viewBox="0 0 32 32">
<path d="M18.275 11.191l0.596 0.437c0.044 0.030 0.081 0.069 0.108 0.114s0.044 0.095 0.049 0.147-0.001 0.104-0.019 0.153c-0.018 0.049-0.046 0.094-0.084 0.132l-3.523 3.791c-0.037 0.041-0.089 0.068-0.145 0.074s-0.113-0.008-0.16-0.039l-0.137-0.096c-0.041-0.032-0.093-0.049-0.146-0.049s-0.104 0.017-0.146 0.049l-1.903 1.694c1.351-0.16 2.69-0.402 4.011-0.724 2.143-0.543 4.166-1.453 5.971-2.686 0 0 0.537 1.197 0.15 1.638-1.615 1.882-9.129 3.538-11.672 3.139l-1.714 1.516-0.127-0.135 1.364-1.503c-0.094-0.038-0.172-0.083-0.231-0.134-0.113-0.294-0.193-0.598-0.237-0.908 0.503-0.022 1.004-0.056 1.505-0.1l5.85-6.447c0.076-0.089 0.186-0.145 0.305-0.156s0.239 0.023 0.332 0.095zM11.412 18.227c-0.017 0.028-0.029 0.058-0.035 0.090-0.012 0.058-0.006 0.117 0.018 0.172s0.063 0.101 0.114 0.133c0.051 0.033 0.111 0.050 0.172 0.050 0.041 0.001 0.081-0.007 0.119-0.021s0.072-0.037 0.101-0.064c0.029-0.028 0.052-0.061 0.067-0.097s0.023-0.075 0.022-0.114c0-0.026-0.004-0.052-0.011-0.077l-0.003 0.003c-0.019-0.061-0.059-0.114-0.112-0.152s-0.118-0.058-0.184-0.058c-0.073-0.001-0.145 0.022-0.202 0.066-0.026 0.020-0.048 0.044-0.066 0.070z"></path>
<path d="M15.439 5.884l0.724 0.948 0.351-0.013-0.758-1.008c0.202-0.066 0.378-0.195 0.503-0.366 0.117-0.179 0.173-0.39 0.16-0.603 0.002-0.144-0.029-0.286-0.091-0.416s-0.152-0.244-0.264-0.334c-0.267-0.188-0.593-0.276-0.919-0.246l-1.153 0.004 0.1 3.017h0.321l-0.030-0.957 0.815-0.026c0.081 0.004 0.162 0.004 0.243 0zM16.035 5.158c-0.038 0.098-0.099 0.186-0.177 0.257-0.193 0.151-0.434 0.229-0.68 0.22l-0.806 0.026-0.052-1.508 0.823-0.030c0.24-0.020 0.481 0.042 0.68 0.177 0.082 0.067 0.147 0.151 0.192 0.246s0.066 0.2 0.064 0.305c0.009 0.105-0.006 0.21-0.044 0.308zM13.186 6.724l-1.794 0.414-0.26-1.090 1.529-0.353-0.065-0.267-1.525 0.358-0.247-1.043 1.733-0.401-0.061-0.267-2.028 0.47 0.693 2.939 2.088-0.487-0.065-0.271zM7.766 5.604l1.144 2.491 1.547-0.698 0.113 0.25-1.837 0.832-1.257-2.745 0.29-0.129zM4.746 7.53l1.82 2.413 1.616-1.202-0.165-0.22-1.361 1.013-1.651-2.198-0.26 0.194zM4.022 11.65l1.010-1.34 0.867 0.181 0.204-0.267-3.263-0.698-0.186 0.254 1.603 2.909 0.199-0.267-0.433-0.771zM3.013 9.853l1.733 0.388-0.867 1.159-0.867-1.547zM2.649 12.723l1.127 0.254c0.093 0.171 0.15 0.358 0.169 0.552 0.022 0.205 0.008 0.412-0.039 0.612-0.056 0.278-0.185 0.537-0.373 0.75-0.179 0.201-0.41 0.35-0.667 0.431-0.266 0.081-0.548 0.092-0.819 0.030-0.272-0.058-0.522-0.189-0.724-0.379-0.199-0.182-0.342-0.417-0.412-0.677-0.078-0.282-0.078-0.58 0-0.862 0.047-0.211 0.13-0.412 0.247-0.595 0.111-0.166 0.259-0.303 0.433-0.401l0.156 0.237c-0.149 0.091-0.278 0.213-0.376 0.357s-0.165 0.307-0.196 0.479c-0.054 0.223-0.049 0.456 0.013 0.677 0.058 0.21 0.174 0.399 0.334 0.547 0.164 0.158 0.37 0.267 0.594 0.315 0.217 0.061 0.446 0.061 0.663 0 0.208-0.068 0.394-0.188 0.542-0.349 0.151-0.174 0.256-0.383 0.303-0.608 0.071-0.273 0.053-0.561-0.052-0.823l-0.992-0.25 0.069-0.297zM18.454 6.031l1.499-1.754-0.303-0.065-1.3 1.521-0.767-1.836-0.338-0.052 0.897 2.155-0.16 1.013 0.316 0.047 0.156-1.030zM23.116 6.337l-0.165 0.129-0.377-0.5-0.238 0.565-0.182-0.078 0.243-0.565-0.624 0.082v-0.207l0.615-0.069-0.381-0.487 0.169-0.129 0.334 0.491 0.234-0.569 0.186 0.078-0.221 0.577 0.624-0.086v0.211l-0.594 0.069 0.377 0.487zM24.186 9.323c0.112 0.202 0.258 0.383 0.433 0.534 0.162 0.139 0.351 0.245 0.555 0.31 0.157 0.047 0.324 0.047 0.481 0 0.143-0.045 0.269-0.13 0.364-0.246 0.109-0.117 0.169-0.271 0.169-0.431-0.005-0.143-0.045-0.282-0.117-0.405-0.092-0.163-0.196-0.319-0.312-0.465-0.117-0.155-0.204-0.284-0.264-0.384-0.058-0.092-0.094-0.197-0.104-0.306-0.006-0.053 0-0.107 0.018-0.157s0.045-0.097 0.082-0.136c0.048-0.061 0.11-0.109 0.181-0.139s0.149-0.044 0.226-0.037c0.21 0.024 0.407 0.116 0.559 0.263 0.11 0.086 0.207 0.186 0.29 0.297 0.083 0.125 0.148 0.261 0.191 0.405l0.247-0.129c-0.043-0.154-0.112-0.3-0.204-0.431-0.1-0.141-0.218-0.269-0.351-0.379-0.161-0.139-0.348-0.244-0.55-0.31-0.157-0.045-0.324-0.045-0.481 0-0.141 0.047-0.265 0.132-0.36 0.246-0.109 0.117-0.169 0.271-0.169 0.431 0.003 0.142 0.042 0.281 0.113 0.405 0.092 0.165 0.197 0.324 0.312 0.474 0.095 0.123 0.183 0.251 0.264 0.384 0.054 0.091 0.090 0.192 0.104 0.297 0.005 0.053-0.002 0.106-0.019 0.157s-0.045 0.097-0.080 0.136c-0.049 0.059-0.112 0.105-0.183 0.134s-0.148 0.041-0.225 0.034c-0.212-0.029-0.409-0.124-0.563-0.271-0.15-0.12-0.276-0.266-0.373-0.431-0.089-0.147-0.145-0.312-0.165-0.483l-0.256 0.112c0.020 0.186 0.084 0.365 0.186 0.521zM27.934 9.090l0.225-0.159 1.408 2-0.225 0.159-0.611-0.862-2.262 1.573-0.182-0.263 2.257-1.586-0.611-0.862zM27.574 13.495c0.077-0.26 0.228-0.494 0.433-0.672 0.201-0.179 0.446-0.303 0.711-0.358 0.269-0.062 0.55-0.051 0.815 0.030 0.255 0.084 0.483 0.232 0.663 0.431 0.187 0.214 0.314 0.472 0.368 0.75 0.072 0.273 0.072 0.559 0 0.832-0.079 0.259-0.229 0.492-0.433 0.672-0.207 0.184-0.458 0.312-0.729 0.371s-0.553 0.047-0.818-0.034c-0.257-0.080-0.486-0.229-0.663-0.431-0.186-0.212-0.313-0.469-0.368-0.746-0.066-0.279-0.059-0.57 0.022-0.845zM28.142 14.865c0.145 0.164 0.332 0.285 0.542 0.349 0.216 0.062 0.444 0.070 0.664 0.021s0.423-0.15 0.593-0.297c0.16-0.146 0.278-0.332 0.342-0.539 0.060-0.218 0.066-0.447 0.017-0.668s-0.152-0.426-0.299-0.599c-0.151-0.165-0.344-0.285-0.559-0.349-0.219-0.058-0.449-0.058-0.667 0-0.221 0.042-0.425 0.145-0.589 0.297-0.161 0.147-0.28 0.335-0.342 0.543-0.059 0.219-0.059 0.449 0 0.668 0.047 0.214 0.151 0.411 0.299 0.573zM28.367 18.067l-1.122 0.431-0.082 0.323 1.196-0.431c0.001 0.213 0.075 0.419 0.21 0.584s0.322 0.28 0.531 0.325c0.137 0.044 0.283 0.057 0.426 0.036s0.279-0.074 0.397-0.156c0.258-0.199 0.436-0.483 0.503-0.802l0.295-1.090-2.929-0.78-0.082 0.306 0.919 0.237-0.212 0.78c-0.003 0.010-0.005 0.020-0.008 0.030l-0.004 0.013c-0.018 0.066-0.036 0.13-0.036 0.194zM28.899 18.855c-0.083-0.064-0.152-0.145-0.202-0.236-0.088-0.228-0.093-0.48-0.013-0.711l0.208-0.776 1.469 0.392-0.208 0.776c-0.047 0.24-0.177 0.455-0.368 0.608-0.090 0.054-0.19 0.090-0.294 0.105s-0.21 0.009-0.312-0.018c-0.102-0.027-0.197-0.074-0.279-0.139zM25.689 21.273l1.122-1.448 0.897 0.677-0.971 1.245 0.217 0.164 0.949-1.245 0.867 0.651-1.062 1.392 0.221 0.168 1.257-1.651-2.418-1.823-1.3 1.702 0.221 0.168zM24.056 24.743v-0.207l0.62-0.004-0.334-0.513 0.169-0.108 0.329 0.517 0.269-0.577 0.186 0.099-0.295 0.543 0.62-0.034v0.211h-0.628l0.334 0.513-0.169 0.108-0.329-0.517-0.286 0.56-0.182-0.103 0.316-0.521-0.62 0.034zM19.043 24.363l0.524 0.289c0.088-0.168 0.211-0.315 0.36-0.433s0.322-0.202 0.507-0.248c0.172-0.053 0.353-0.072 0.533-0.056 0.156 0.012 0.306 0.065 0.433 0.155 0.115 0.087 0.2 0.207 0.243 0.345 0.052 0.17 0.043 0.353-0.026 0.517-0.109 0.223-0.255 0.426-0.433 0.599 0.143 0.076 0.275 0.17 0.394 0.28 0.082 0.084 0.143 0.186 0.178 0.297 0.022 0.087 0.024 0.178 0.004 0.265s-0.060 0.169-0.117 0.239c-0.116 0.166-0.288 0.284-0.485 0.332-0.173 0.066-0.364 0.066-0.537 0-0.077-0.033-0.145-0.083-0.199-0.147s-0.093-0.139-0.113-0.22c-0.045-0.142-0.035-0.296 0.030-0.431 0.099-0.196 0.23-0.375 0.386-0.53l-1.044-0.577c-0.040 0.203-0.049 0.411-0.026 0.616h-0.264c-0.018-0.253 0.012-0.507 0.087-0.75l-0.546-0.302 0.113-0.241zM19.797 24.794l1.148 0.634c0.15-0.143 0.275-0.311 0.368-0.496 0.048-0.125 0.048-0.263 0-0.388-0.020-0.075-0.058-0.143-0.111-0.2s-0.119-0.099-0.193-0.123c-0.18-0.060-0.375-0.060-0.555 0-0.147 0.039-0.284 0.109-0.4 0.206s-0.211 0.218-0.276 0.355l0.017 0.013zM21.426 26.518l-0.017-0.004c-0.070 0.1-0.172 0.171-0.29 0.203-0.11 0.041-0.232 0.041-0.342 0-0.046-0.023-0.087-0.055-0.12-0.094s-0.057-0.085-0.071-0.135c-0.030-0.107-0.018-0.221 0.035-0.319 0.096-0.157 0.211-0.302 0.342-0.431 0.129 0.065 0.249 0.145 0.36 0.237 0.064 0.062 0.112 0.139 0.139 0.224 0.017 0.052 0.023 0.108 0.017 0.163s-0.024 0.108-0.052 0.156zM13.822 24.669h0.308l-0.048 2.413 1.231-2.008h0.152l1.153 2.043 0.043-2.4h0.308l-0.056 3.017h-0.264l-1.274-2.254-1.348 2.211-0.264-0.004 0.061-3.017zM12.254 24.531c0.198 0.188 0.34 0.427 0.41 0.69s0.064 0.541-0.015 0.801c-0.071 0.267-0.213 0.509-0.412 0.702-0.193 0.188-0.434 0.32-0.698 0.379-0.278 0.062-0.567 0.053-0.841-0.026-0.273-0.066-0.523-0.201-0.728-0.392-0.195-0.185-0.335-0.421-0.403-0.681-0.067-0.268-0.062-0.55 0.014-0.816s0.22-0.508 0.419-0.701c0.189-0.188 0.426-0.322 0.685-0.388 0.276-0.062 0.564-0.053 0.836 0.026 0.275 0.069 0.528 0.209 0.732 0.405zM10.777 24.381c-0.212 0.049-0.406 0.157-0.559 0.31-0.16 0.158-0.273 0.356-0.329 0.573-0.060 0.216-0.060 0.444 0 0.659 0.051 0.21 0.161 0.401 0.316 0.552 0.163 0.159 0.365 0.273 0.585 0.332 0.22 0.056 0.451 0.056 0.672 0 0.212-0.052 0.407-0.159 0.563-0.31 0.159-0.159 0.272-0.357 0.329-0.573 0.061-0.217 0.061-0.447 0-0.664-0.055-0.209-0.166-0.4-0.321-0.552-0.164-0.159-0.367-0.272-0.589-0.328-0.218-0.060-0.449-0.060-0.667 0zM7.614 23.562l-0.117-1.185-0.308-0.198 0.126 1.267c-0.208-0.051-0.426-0.034-0.624 0.047-0.195 0.091-0.354 0.242-0.455 0.431-0.077 0.121-0.125 0.257-0.142 0.399s-0.001 0.285 0.046 0.42c0.128 0.299 0.358 0.544 0.65 0.69l0.988 0.565 1.516-2.599-0.282-0.159-0.477 0.836-0.706-0.405c-0.070-0.040-0.142-0.076-0.217-0.108zM6.722 23.872c0.084-0.063 0.179-0.108 0.281-0.134v-0.022c0.25-0.013 0.497 0.062 0.698 0.211l0.698 0.401-0.758 1.293-0.698-0.401c-0.221-0.109-0.397-0.29-0.498-0.513-0.029-0.1-0.038-0.205-0.026-0.309s0.046-0.204 0.098-0.294c0.052-0.091 0.122-0.17 0.206-0.233zM4.932 20.355l1.283 1.301-0.806 0.78-1.096-1.12-0.208 0.198 1.075 1.112-0.741 0.746-1.226-1.254-0.199 0.194 1.443 1.482 2.166-2.103-1.495-1.53-0.195 0.194zM1.817 18.067l0.204 0.030-0.117 0.612 0.576-0.211 0.069 0.19-0.585 0.198 0.481 0.405-0.139 0.155-0.464-0.431-0.108 0.612-0.208-0.039 0.121-0.612-0.581 0.207-0.065-0.168 0.581-0.203-0.481-0.401 0.143-0.155 0.468 0.405 0.104-0.595z"></path>
</symbol>
<symbol id="icon-logo-light" viewBox="0 0 40 32">
<path fill="#fff" style="fill: var(--color1, #fff)" d="M22.718 9.734l-0.76-0.577c-0.119-0.096-0.271-0.141-0.423-0.126s-0.292 0.089-0.39 0.206l-10.521 12.013 0.162 0.179 2.606-2.389c-0.087-0.035-0.159-0.099-0.203-0.181s-0.058-0.177-0.040-0.268 0.069-0.173 0.142-0.231c0.073-0.058 0.164-0.089 0.258-0.088 0.084 0 0.167 0.027 0.234 0.077s0.118 0.12 0.143 0.2l3.435-3.168c0.053-0.042 0.118-0.065 0.186-0.065s0.133 0.023 0.186 0.065l0.174 0.127c0.059 0.042 0.131 0.060 0.203 0.052s0.138-0.044 0.185-0.098l4.491-5.008c0.048-0.050 0.084-0.109 0.107-0.174s0.031-0.134 0.024-0.202c-0.007-0.068-0.028-0.135-0.063-0.194s-0.082-0.111-0.138-0.151z"></path>
<path fill="#fff" style="fill: var(--color1, #fff)" d="M27.663 13.115c-2.302 1.629-4.882 2.831-7.614 3.548-2.711 0.686-5.486 1.096-8.281 1.223 0.056 0.41 0.158 0.812 0.302 1.2 1.578 1.419 13.463-1.004 15.784-3.808 0.493-0.583-0.192-2.164-0.192-2.164zM13.55 19.041c-0.078 0-0.154-0.023-0.219-0.066s-0.115-0.104-0.145-0.176c-0.030-0.072-0.038-0.151-0.022-0.227s0.053-0.146 0.108-0.201c0.055-0.055 0.126-0.092 0.202-0.107s0.156-0.007 0.228 0.022c0.072 0.030 0.134 0.080 0.177 0.145s0.066 0.14 0.066 0.218c0.001 0.052-0.009 0.103-0.028 0.151s-0.049 0.092-0.085 0.128c-0.037 0.037-0.081 0.066-0.129 0.085s-0.1 0.029-0.152 0.028z"></path>
<path fill="#fff" style="fill: var(--color1, #fff)" d="M2.321 12.284l0.093-0.398 1.509 0.34c0.124 0.229 0.201 0.48 0.226 0.739 0.029 0.274 0.011 0.551-0.052 0.819-0.075 0.372-0.247 0.719-0.499 1.004-0.24 0.27-0.549 0.469-0.894 0.577-0.356 0.109-0.734 0.123-1.097 0.040-0.364-0.078-0.699-0.254-0.969-0.508-0.266-0.244-0.457-0.558-0.551-0.906-0.104-0.378-0.104-0.776 0-1.154 0.062-0.283 0.174-0.552 0.331-0.796 0.148-0.222 0.347-0.406 0.58-0.537l0.209 0.317c-0.2 0.122-0.372 0.285-0.504 0.478s-0.221 0.412-0.262 0.641c-0.072 0.298-0.066 0.61 0.017 0.906 0.078 0.281 0.233 0.534 0.447 0.733 0.22 0.212 0.496 0.358 0.795 0.421 0.29 0.081 0.598 0.081 0.888 0 0.278-0.091 0.528-0.252 0.725-0.467 0.203-0.232 0.343-0.512 0.406-0.814 0.095-0.365 0.071-0.751-0.070-1.102l-1.329-0.335z"></path>
<path fill="#fff" style="fill: var(--color1, #fff)" d="M5.606 8.655l-1.352 1.794 0.58 1.033-0.267 0.358-2.147-3.895 0.25-0.34 4.37 0.935-0.273 0.358-1.161-0.242zM5.223 8.563l-2.321-0.519 1.161 2.071 1.161-1.552z"></path>
<path fill="#fff" style="fill: var(--color1, #fff)" d="M5.223 4.933l0.348-0.26 2.211 2.943 1.822-1.356 0.22 0.294-2.165 1.61-2.437-3.231z"></path>
<path fill="#fff" style="fill: var(--color1, #fff)" d="M8.878 2.527l0.389-0.173 1.532 3.335 2.072-0.935 0.151 0.335-2.46 1.114-1.683-3.675z"></path>
<path fill="#fff" style="fill: var(--color1, #fff)" d="M16.527 3.854l0.087 0.364-2.797 0.652-0.928-3.935 2.716-0.629 0.081 0.358-2.321 0.537 0.331 1.396 2.043-0.479 0.087 0.358-2.048 0.473 0.348 1.46 2.402-0.554z"></path>
<path fill="#fff" style="fill: var(--color1, #fff)" d="M20.513 3.999l-0.969-1.269c-0.108 0.006-0.217 0.006-0.325 0l-1.091 0.035 0.041 1.281h-0.429l-0.134-4.039 1.544-0.006c0.436-0.040 0.873 0.077 1.23 0.329 0.151 0.121 0.272 0.274 0.354 0.448s0.124 0.364 0.122 0.556c0.017 0.285-0.058 0.568-0.215 0.808-0.167 0.23-0.402 0.402-0.673 0.49l1.016 1.35-0.47 0.017zM20.107 2.1c0.104-0.095 0.185-0.213 0.236-0.344s0.072-0.272 0.059-0.412c0.003-0.141-0.026-0.281-0.086-0.408s-0.147-0.241-0.257-0.33c-0.267-0.18-0.589-0.264-0.911-0.237l-1.103 0.040 0.070 2.019 1.079-0.035c0.329 0.012 0.652-0.092 0.911-0.294z"></path>
<path fill="#fff" style="fill: var(--color1, #fff)" d="M23.583 2.925l-0.209 1.379-0.424-0.063 0.215-1.356-1.201-2.885 0.453 0.069 1.027 2.458 1.741-2.037 0.406 0.087-2.008 2.348z"></path>
<path fill="#fff" style="fill: var(--color1, #fff)" d="M29.323 2.683l0.505 0.652-0.221 0.173-0.505-0.669-0.319 0.756-0.244-0.104 0.325-0.756-0.836 0.11v-0.277l0.824-0.092-0.511-0.652 0.226-0.173 0.447 0.658 0.313-0.762 0.25 0.104-0.296 0.773 0.836-0.115v0.283l-0.795 0.092z"></path>
<path fill="#fff" style="fill: var(--color1, #fff)" d="M31.261 7.334c-0.137-0.21-0.223-0.449-0.25-0.698l0.342-0.15c0.026 0.229 0.101 0.449 0.221 0.646 0.13 0.221 0.299 0.417 0.499 0.577 0.207 0.197 0.471 0.324 0.754 0.363 0.102 0.009 0.206-0.006 0.301-0.045s0.179-0.101 0.245-0.18c0.048-0.053 0.085-0.115 0.108-0.182s0.032-0.139 0.026-0.21c-0.019-0.141-0.067-0.276-0.139-0.398-0.109-0.177-0.227-0.348-0.354-0.514-0.154-0.201-0.294-0.413-0.418-0.635-0.094-0.166-0.146-0.352-0.151-0.542-0-0.214 0.080-0.42 0.226-0.577 0.126-0.152 0.293-0.266 0.482-0.329 0.21-0.060 0.434-0.060 0.644 0 0.271 0.088 0.522 0.229 0.737 0.415 0.179 0.148 0.337 0.319 0.47 0.508 0.123 0.175 0.216 0.371 0.273 0.577l-0.331 0.173c-0.058-0.192-0.144-0.375-0.255-0.542-0.111-0.149-0.242-0.283-0.389-0.398-0.204-0.196-0.467-0.32-0.749-0.352-0.103-0.009-0.208 0.008-0.303 0.050s-0.179 0.105-0.243 0.187c-0.049 0.052-0.087 0.114-0.11 0.182s-0.031 0.14-0.024 0.211c0.014 0.146 0.061 0.286 0.139 0.41 0.081 0.133 0.197 0.306 0.354 0.514 0.155 0.197 0.295 0.405 0.418 0.623 0.097 0.165 0.15 0.351 0.157 0.542 0 0.214-0.080 0.42-0.226 0.577-0.127 0.154-0.296 0.269-0.487 0.329-0.21 0.063-0.434 0.063-0.644 0-0.273-0.088-0.526-0.229-0.743-0.415-0.234-0.203-0.431-0.445-0.58-0.715z"></path>
<path fill="#fff" style="fill: var(--color1, #fff)" d="M37.098 8.176l-0.818-1.154 0.302-0.213 1.886 2.677-0.302 0.213-0.818-1.154-3.029 2.106-0.244-0.352 3.023-2.123z"></path>
<path fill="#fff" style="fill: var(--color1, #fff)" d="M35.799 12.919c0.104-0.349 0.305-0.661 0.58-0.9 0.269-0.24 0.598-0.405 0.952-0.479 0.361-0.082 0.737-0.068 1.091 0.040 0.341 0.112 0.648 0.311 0.888 0.577 0.25 0.286 0.42 0.632 0.493 1.004 0.096 0.365 0.096 0.748 0 1.114-0.106 0.347-0.307 0.659-0.58 0.9-0.277 0.246-0.613 0.417-0.976 0.496s-0.74 0.063-1.095-0.046c-0.344-0.107-0.651-0.307-0.888-0.577-0.249-0.284-0.419-0.629-0.493-0.998-0.089-0.373-0.079-0.763 0.029-1.131zM36.559 14.754c0.194 0.219 0.445 0.381 0.725 0.467 0.289 0.083 0.595 0.093 0.889 0.029s0.567-0.201 0.794-0.398c0.214-0.196 0.372-0.445 0.458-0.721 0.081-0.292 0.089-0.599 0.023-0.895s-0.203-0.571-0.4-0.802c-0.202-0.22-0.461-0.382-0.749-0.467-0.293-0.077-0.601-0.077-0.894 0-0.295 0.056-0.569 0.194-0.789 0.398-0.216 0.197-0.375 0.448-0.458 0.727-0.079 0.293-0.079 0.601 0 0.894 0.064 0.286 0.202 0.551 0.4 0.767z"></path>
<path fill="#fff" style="fill: var(--color1, #fff)" d="M35.358 19.618l1.503-0.577c0-0.104 0.035-0.208 0.064-0.317l0.284-1.044-1.23-0.317 0.11-0.41 3.923 1.044-0.395 1.46c-0.089 0.426-0.328 0.806-0.673 1.073-0.159 0.11-0.341 0.181-0.532 0.209s-0.386 0.012-0.57-0.048c-0.28-0.060-0.531-0.214-0.711-0.435s-0.28-0.497-0.281-0.782l-1.602 0.577 0.11-0.433zM37.301 19.779c0.068 0.123 0.16 0.23 0.271 0.317s0.238 0.149 0.374 0.186c0.136 0.036 0.278 0.044 0.417 0.025s0.273-0.068 0.394-0.14c0.256-0.205 0.431-0.493 0.493-0.814l0.279-1.039-1.967-0.525-0.279 1.039c-0.107 0.309-0.101 0.647 0.017 0.952z"></path>
<path fill="#fff" style="fill: var(--color1, #fff)" d="M33.274 23.334l-0.296-0.225 1.741-2.279 3.238 2.441-1.683 2.21-0.296-0.225 1.422-1.864-1.161-0.871-1.271 1.668-0.29-0.219 1.3-1.668-1.201-0.906-1.503 1.939z"></path>
<path fill="#fff" style="fill: var(--color1, #fff)" d="M31.917 27.932l-0.83 0.046v-0.277l0.83-0.006-0.447-0.687 0.226-0.144 0.441 0.692 0.36-0.773 0.249 0.133-0.395 0.727 0.83-0.046v0.283h-0.841l0.447 0.687-0.226 0.144-0.441-0.692-0.383 0.75-0.244-0.139 0.424-0.698z"></path>
<path fill="#fff" style="fill: var(--color1, #fff)" d="M24.372 27.471l0.702 0.387c0.118-0.225 0.282-0.422 0.482-0.579s0.431-0.27 0.679-0.332c0.231-0.072 0.473-0.097 0.714-0.075 0.209 0.016 0.409 0.088 0.58 0.208 0.155 0.116 0.268 0.277 0.325 0.462 0.070 0.228 0.058 0.473-0.035 0.692-0.146 0.299-0.342 0.57-0.58 0.802 0.191 0.102 0.369 0.228 0.528 0.375 0.109 0.112 0.191 0.249 0.238 0.398 0.030 0.116 0.032 0.238 0.005 0.355s-0.080 0.227-0.156 0.32c-0.155 0.222-0.386 0.38-0.65 0.444-0.232 0.088-0.488 0.088-0.72 0-0.103-0.044-0.194-0.111-0.267-0.196s-0.124-0.186-0.151-0.294c-0.061-0.19-0.046-0.397 0.041-0.577 0.133-0.262 0.308-0.502 0.517-0.71l-1.399-0.773c-0.053 0.272-0.065 0.55-0.035 0.825h-0.354c-0.024-0.339 0.016-0.679 0.116-1.004l-0.731-0.404 0.151-0.323zM25.382 28.048l1.538 0.848c0.202-0.191 0.368-0.416 0.493-0.664 0.064-0.167 0.064-0.352 0-0.519-0.026-0.1-0.077-0.192-0.148-0.267s-0.16-0.132-0.258-0.165c-0.241-0.081-0.502-0.081-0.743 0-0.197 0.052-0.38 0.146-0.536 0.275s-0.282 0.292-0.369 0.475l0.023 0.017zM27.564 30.356c0.038-0.064 0.062-0.135 0.070-0.208s0-0.148-0.023-0.218c-0.036-0.114-0.099-0.217-0.186-0.3-0.148-0.124-0.309-0.23-0.482-0.317-0.176 0.173-0.33 0.367-0.458 0.577-0.070 0.131-0.087 0.284-0.046 0.427 0.018 0.066 0.051 0.127 0.095 0.18s0.099 0.096 0.161 0.126c0.148 0.055 0.311 0.055 0.458 0 0.158-0.042 0.296-0.138 0.389-0.271l0.023 0.006z"></path>
<path fill="#fff" style="fill: var(--color1, #fff)" d="M17.299 31.919l0.081-4.039h0.412l-0.064 3.231 1.648-2.689h0.203l1.544 2.735 0.058-3.214h0.412l-0.075 4.039h-0.354l-1.706-3.018-1.805 2.96-0.354-0.006z"></path>
<path fill="#fff" style="fill: var(--color1, #fff)" d="M15.279 27.696c0.265 0.252 0.455 0.571 0.549 0.924s0.086 0.724-0.020 1.073c-0.095 0.357-0.286 0.682-0.551 0.941-0.258 0.252-0.582 0.428-0.934 0.508-0.372 0.084-0.759 0.072-1.126-0.035-0.365-0.089-0.701-0.27-0.975-0.525-0.261-0.248-0.448-0.564-0.54-0.912-0.089-0.36-0.083-0.736 0.019-1.092s0.295-0.68 0.561-0.939c0.253-0.252 0.57-0.431 0.917-0.519 0.37-0.083 0.756-0.071 1.12 0.035 0.369 0.093 0.707 0.28 0.981 0.542zM13.3 27.494c-0.284 0.066-0.543 0.21-0.749 0.415-0.214 0.212-0.366 0.477-0.441 0.767-0.081 0.289-0.081 0.594 0 0.883 0.068 0.281 0.215 0.537 0.424 0.738 0.219 0.212 0.488 0.366 0.783 0.444 0.295 0.075 0.604 0.075 0.899 0 0.284-0.069 0.544-0.213 0.754-0.415 0.213-0.213 0.365-0.477 0.441-0.767 0.081-0.291 0.081-0.598 0-0.889-0.074-0.28-0.223-0.535-0.429-0.739-0.22-0.213-0.492-0.364-0.789-0.439-0.292-0.080-0.601-0.080-0.894 0z"></path>
<path fill="#fff" style="fill: var(--color1, #fff)" d="M8.907 24.811l0.157 1.587c0.1 0.042 0.196 0.090 0.29 0.144l0.946 0.542 0.638-1.119 0.377 0.213-2.031 3.479-1.323-0.756c-0.391-0.195-0.7-0.523-0.87-0.923-0.063-0.18-0.084-0.373-0.062-0.563s0.087-0.372 0.19-0.534c0.135-0.253 0.349-0.455 0.609-0.577 0.265-0.109 0.557-0.131 0.836-0.064l-0.168-1.696 0.412 0.265zM8.246 26.634c-0.136 0.034-0.264 0.095-0.376 0.179s-0.206 0.19-0.276 0.311-0.114 0.255-0.131 0.394c-0.017 0.139-0.005 0.279 0.035 0.414 0.136 0.299 0.372 0.541 0.667 0.687l0.934 0.537 1.016-1.731-0.934-0.537c-0.268-0.2-0.599-0.3-0.934-0.283v0.029z"></path>
<path fill="#fff" style="fill: var(--color1, #fff)" d="M5.472 22.105l0.261-0.26 2.002 2.048-2.902 2.816-1.932-1.985 0.267-0.26 1.642 1.679 0.992-0.998-1.439-1.489 0.279-0.265 1.468 1.5 1.079-1.044-1.718-1.742z"></path>
<path fill="#fff" style="fill: var(--color1, #fff)" d="M1.161 19.837l0.139-0.796 0.273 0.040-0.157 0.819 0.772-0.283 0.093 0.254-0.783 0.265 0.644 0.542-0.186 0.208-0.621-0.577-0.145 0.819-0.279-0.052 0.162-0.819-0.778 0.277-0.087-0.225 0.778-0.271-0.644-0.537 0.192-0.208 0.627 0.542z"></path>
</symbol>
<symbol id="icon-menu" viewBox="0 0 48 32">
<path fill="#fff" style="fill: var(--color1, #fff)" d="M0 5.333v-5.333h48v5.333h-48zM0 18.667h48v-5.333h-48v5.333zM0 32h48v-5.333h-48v5.333z"></path>
</symbol>
<symbol id="icon-close" viewBox="0 0 32 32">
<path d="M31.439 3.166l-3.166-3.166-12.553 12.553-12.553-12.553-3.166 3.166 12.553 12.553-12.553 12.553 3.166 3.166 12.553-12.553 12.553 12.553 3.166-3.166-12.553-12.553 12.553-12.553z"></path>
</symbol>
    <symbol id="icon-mail" viewBox="0 0 32 32">
      <path stroke-linecap="round" stroke-linejoin="round" stroke-width="1.333" d="M6.4 6.667h19.2c1.32 0 2.4 1.05 2.4 2.333v14c0 1.283-1.08 2.333-2.4 2.333H6.4C5.08 25.333 4 24.283 4 23V9c0-1.283 1.08-2.333 2.4-2.333z"/>
      <path stroke-linecap="round" stroke-linejoin="round" stroke-width="1.333" d="m26.667 9.333-10.667 8-10.667-8"/>
    </symbol>
    <symbol id="icon-map-pin" viewBox="0 0 32 32">
      <path stroke-linecap="round" stroke-linejoin="round" stroke-width="1.333" d="M26.667 13.818C26.667 21.454 16 28 16 28S5.333 21.455 5.333 13.818C5.333 8.396 10.109 4 16 4s10.667 4.396 10.667 9.818z"/>
      <path stroke-linecap="round" stroke-linejoin="round" stroke-width="1.333" d="M16 18.667a4 4 0 1 0 0-8 4 4 0 0 0 0 8z"/>
    </symbol>
    <symbol id="icon-phone" viewBox="0 0 32 32">
      <path stroke-linecap="round" stroke-linejoin="round" stroke-width="1.333" d="M26.666 21.337v3.218a2.146 2.146 0 0 1-2.338 2.145 21.239 21.239 0 0 1-9.257-3.293 20.914 20.914 0 0 1-6.436-6.436 21.221 21.221 0 0 1-3.293-9.3 2.144 2.144 0 0 1 2.134-2.338h3.218a2.144 2.144 0 0 1 2.145 1.845c.136 1.03.388 2.041.751 3.014a2.144 2.144 0 0 1-.483 2.263l-1.362 1.362a17.162 17.162 0 0 0 6.436 6.436l1.362-1.362a2.146 2.146 0 0 1 2.263-.483c.973.363 1.984.615 3.014.751a2.144 2.144 0 0 1 1.845 2.177z"/>
    </symbol>
    <symbol id="icon-facebook" viewBox="0 0 32 32">
      <path d="M21.33 5.313h2.921V.225C23.747.156 22.014 0 19.995 0c-4.212 0-7.097 2.649-7.097 7.519V12H8.25v5.688h4.648V32h5.699V17.689h4.46l.708-5.688h-5.169V8.082c.001-1.644.444-2.769 2.735-2.769z"/>
    </symbol>
    <symbol id="icon-instagram" viewBox="0 0 32 32">
      <path d="M31.912 9.408c-.075-1.7-.35-2.869-.744-3.882a7.803 7.803 0 0 0-1.85-2.838A7.867 7.867 0 0 0 26.486.844C25.467.45 24.304.175 22.604.1 20.891.019 20.347 0 16.003 0s-4.888.019-6.595.094c-1.7.075-2.869.35-3.882.744a7.803 7.803 0 0 0-2.838 1.85A7.867 7.867 0 0 0 .844 5.52C.45 6.539.175 7.702.1 9.402c-.081 1.713-.1 2.257-.1 6.601s.019 4.888.094 6.595c.075 1.7.35 2.869.744 3.882a7.895 7.895 0 0 0 1.85 2.838 7.867 7.867 0 0 0 2.832 1.844c1.019.394 2.182.669 3.882.744 1.706.075 2.25.094 6.595.094s4.888-.019 6.595-.094c1.7-.075 2.869-.35 3.882-.744a8.184 8.184 0 0 0 4.682-4.682c.394-1.019.669-2.182.744-3.882.075-1.707.094-2.251.094-6.595s-.006-4.888-.081-6.595zm-2.881 13.065c-.069 1.563-.331 2.407-.55 2.969a5.31 5.31 0 0 1-3.038 3.038c-.563.219-1.413.481-2.969.55-1.688.075-2.194.094-6.464.094s-4.782-.019-6.464-.094c-1.563-.069-2.407-.331-2.969-.55a4.926 4.926 0 0 1-1.838-1.194 4.974 4.974 0 0 1-1.194-1.838c-.219-.563-.481-1.413-.55-2.969-.075-1.688-.094-2.194-.094-6.464s.019-4.782.094-6.464c.069-1.563.331-2.407.55-2.969a4.868 4.868 0 0 1 1.2-1.838A4.974 4.974 0 0 1 6.583 3.55c.563-.219 1.413-.481 2.969-.55 1.688-.075 2.194-.094 6.464-.094 4.276 0 4.782.019 6.464.094 1.563.069 2.407.331 2.969.55a4.914 4.914 0 0 1 1.838 1.194 4.974 4.974 0 0 1 1.194 1.838c.219.563.481 1.413.55 2.969.075 1.688.094 2.194.094 6.464s-.019 4.77-.094 6.458z"/>
      <path d="M16.059 7.783c-4.538 0-8.22 3.682-8.22 8.22s3.682 8.22 8.22 8.22c4.539 0 8.22-3.682 8.22-8.22s-3.682-8.22-8.22-8.22zm0 13.552a5.333 5.333 0 0 1 0-10.664 5.333 5.333 0 0 1 0 10.664zM26.524 7.458a1.919 1.919 0 1 1-3.838 0 1.919 1.919 0 0 1 3.838 0z"/>
    </symbol>
    <symbol id="icon-linkedin" viewBox="0 0 32 32">
      <path d="M31.992 32v-.001H32V20.263c0-5.741-1.236-10.164-7.948-10.164-3.227 0-5.392 1.771-6.276 3.449h-.093v-2.913h-6.364v21.364h6.627V21.42c0-2.785.528-5.479 3.977-5.479 3.399 0 3.449 3.179 3.449 5.657v10.401h6.62zM.528 10.636h6.635V32H.528V10.636zM3.843 0C1.722 0 0 1.721 0 3.843s1.721 3.879 3.843 3.879c2.121 0 3.843-1.757 3.843-3.879A3.846 3.846 0 0 0 3.843 0z"/>
    </symbol>
    <symbol id="icon-twitter" viewBox="0 0 32 32">
      <path d="M32 6.078c-1.19.522-2.458.868-3.78 1.036a6.523 6.523 0 0 0 2.886-3.626 13.11 13.11 0 0 1-4.16 1.588A6.574 6.574 0 0 0 22.154 3c-3.632 0-6.556 2.948-6.556 6.562 0 .52.044 1.02.152 1.496-5.454-.266-10.28-2.88-13.522-6.862a6.605 6.605 0 0 0-.898 3.316 6.57 6.57 0 0 0 2.914 5.452 6.479 6.479 0 0 1-2.964-.808v.072c0 3.188 2.274 5.836 5.256 6.446a6.548 6.548 0 0 1-1.72.216 5.8 5.8 0 0 1-1.242-.112c.85 2.598 3.262 4.508 6.13 4.57a13.182 13.182 0 0 1-8.134 2.798c-.538 0-1.054-.024-1.57-.09A18.469 18.469 0 0 0 10.064 29c12.072 0 18.672-10 18.672-18.668 0-.29-.01-.57-.024-.848A13.087 13.087 0 0 0 32 6.078z"/>
    </symbol>
  </defs>
</svg>